<mxfile host="Electron" modified="2024-04-25T16:16:02.270Z" agent="Mozilla/5.0 (Windows NT 10.0; Win64; x64) AppleWebKit/537.36 (KHTML, like Gecko) draw.io/24.2.5 Chrome/120.0.6099.109 Electron/28.1.0 Safari/537.36" etag="yCAJX-Anzz0tqGyduw6o" version="24.2.5" type="device">
  <diagram id="C5RBs43oDa-KdzZeNtuy" name="Page-1">
    <mxGraphModel dx="1290" dy="669" grid="1" gridSize="10" guides="1" tooltips="1" connect="1" arrows="1" fold="1" page="1" pageScale="1" pageWidth="1169" pageHeight="1654" math="0" shadow="0">
      <root>
        <mxCell id="WIyWlLk6GJQsqaUBKTNV-0" />
        <mxCell id="WIyWlLk6GJQsqaUBKTNV-1" parent="WIyWlLk6GJQsqaUBKTNV-0" />
        <mxCell id="wYdP03RayNkEMsFccGId-65" value="&lt;b&gt;Start&lt;/b&gt;" style="ellipse;whiteSpace=wrap;html=1;" parent="WIyWlLk6GJQsqaUBKTNV-1" vertex="1">
          <mxGeometry x="480" y="30" width="120" height="40" as="geometry" />
        </mxCell>
        <mxCell id="wYdP03RayNkEMsFccGId-66" value="" style="endArrow=classic;html=1;rounded=0;exitX=0.5;exitY=1;exitDx=0;exitDy=0;entryX=0.5;entryY=0;entryDx=0;entryDy=0;" parent="WIyWlLk6GJQsqaUBKTNV-1" source="wYdP03RayNkEMsFccGId-65" target="wYdP03RayNkEMsFccGId-67" edge="1">
          <mxGeometry width="50" height="50" relative="1" as="geometry">
            <mxPoint x="640" y="290" as="sourcePoint" />
            <mxPoint x="450" y="180" as="targetPoint" />
          </mxGeometry>
        </mxCell>
        <mxCell id="wYdP03RayNkEMsFccGId-67" value="&lt;div style=&quot;text-align: justify;&quot;&gt;&lt;span style=&quot;background-color: initial;&quot;&gt;&lt;b&gt;Display&lt;/b&gt;&lt;/span&gt;&lt;/div&gt;&lt;div style=&quot;text-align: justify;&quot;&gt;&lt;span style=&quot;background-color: initial;&quot;&gt;&lt;b&gt;1 Display Lands&lt;/b&gt;&lt;/span&gt;&lt;/div&gt;&lt;div style=&quot;text-align: justify;&quot;&gt;&lt;span style=&quot;background-color: initial;&quot;&gt;&lt;b&gt;2 Rent a Land&lt;/b&gt;&lt;/span&gt;&lt;/div&gt;&lt;div style=&quot;text-align: justify;&quot;&gt;&lt;span style=&quot;background-color: initial;&quot;&gt;&lt;b&gt;3 Return a Land&lt;/b&gt;&lt;/span&gt;&lt;/div&gt;&lt;div style=&quot;text-align: justify;&quot;&gt;&lt;span style=&quot;background-color: initial;&quot;&gt;&lt;b&gt;4 Exit&lt;/b&gt;&lt;/span&gt;&lt;/div&gt;" style="shape=parallelogram;perimeter=parallelogramPerimeter;whiteSpace=wrap;html=1;fixedSize=1;align=center;" parent="WIyWlLk6GJQsqaUBKTNV-1" vertex="1">
          <mxGeometry x="425" y="100" width="230" height="80" as="geometry" />
        </mxCell>
        <mxCell id="wYdP03RayNkEMsFccGId-68" value="" style="endArrow=classic;html=1;rounded=0;exitX=0.5;exitY=1;exitDx=0;exitDy=0;entryX=0.5;entryY=0;entryDx=0;entryDy=0;" parent="WIyWlLk6GJQsqaUBKTNV-1" source="wYdP03RayNkEMsFccGId-79" target="wYdP03RayNkEMsFccGId-69" edge="1">
          <mxGeometry width="50" height="50" relative="1" as="geometry">
            <mxPoint x="440" y="390" as="sourcePoint" />
            <mxPoint x="450" y="300" as="targetPoint" />
          </mxGeometry>
        </mxCell>
        <mxCell id="CCjqPQjAsDBOnnWErIDQ-150" style="edgeStyle=orthogonalEdgeStyle;rounded=0;orthogonalLoop=1;jettySize=auto;html=1;exitX=0.5;exitY=1;exitDx=0;exitDy=0;entryX=0.5;entryY=0;entryDx=0;entryDy=0;" parent="WIyWlLk6GJQsqaUBKTNV-1" source="wYdP03RayNkEMsFccGId-69" target="wYdP03RayNkEMsFccGId-71" edge="1">
          <mxGeometry relative="1" as="geometry" />
        </mxCell>
        <mxCell id="wYdP03RayNkEMsFccGId-69" value="&lt;b&gt;Choice&amp;nbsp;&lt;/b&gt;&lt;div&gt;&lt;b&gt;==&lt;/b&gt;&lt;/div&gt;&lt;div&gt;&lt;b&gt;1&lt;/b&gt;&lt;/div&gt;" style="rhombus;whiteSpace=wrap;html=1;" parent="WIyWlLk6GJQsqaUBKTNV-1" vertex="1">
          <mxGeometry x="495" y="285" width="90" height="80" as="geometry" />
        </mxCell>
        <mxCell id="CCjqPQjAsDBOnnWErIDQ-299" style="edgeStyle=orthogonalEdgeStyle;rounded=0;orthogonalLoop=1;jettySize=auto;html=1;exitX=1;exitY=0.5;exitDx=0;exitDy=0;entryX=0;entryY=0.5;entryDx=0;entryDy=0;" parent="WIyWlLk6GJQsqaUBKTNV-1" source="wYdP03RayNkEMsFccGId-71" target="CCjqPQjAsDBOnnWErIDQ-381" edge="1">
          <mxGeometry relative="1" as="geometry">
            <mxPoint x="720" y="210" as="targetPoint" />
            <Array as="points">
              <mxPoint x="670" y="440" />
              <mxPoint x="670" y="210" />
            </Array>
          </mxGeometry>
        </mxCell>
        <mxCell id="wYdP03RayNkEMsFccGId-71" value="&lt;b&gt;Choice&amp;nbsp;&lt;br&gt;==&lt;br&gt;2&lt;/b&gt;" style="rhombus;whiteSpace=wrap;html=1;" parent="WIyWlLk6GJQsqaUBKTNV-1" vertex="1">
          <mxGeometry x="500" y="400" width="80" height="80" as="geometry" />
        </mxCell>
        <mxCell id="wYdP03RayNkEMsFccGId-72" value="" style="endArrow=classic;html=1;rounded=0;exitX=0.5;exitY=1;exitDx=0;exitDy=0;" parent="WIyWlLk6GJQsqaUBKTNV-1" source="wYdP03RayNkEMsFccGId-71" target="wYdP03RayNkEMsFccGId-73" edge="1">
          <mxGeometry width="50" height="50" relative="1" as="geometry">
            <mxPoint x="440" y="590" as="sourcePoint" />
            <mxPoint x="450" y="530" as="targetPoint" />
          </mxGeometry>
        </mxCell>
        <mxCell id="wYdP03RayNkEMsFccGId-212" style="edgeStyle=orthogonalEdgeStyle;rounded=0;orthogonalLoop=1;jettySize=auto;html=1;exitX=0;exitY=0.5;exitDx=0;exitDy=0;" parent="WIyWlLk6GJQsqaUBKTNV-1" source="wYdP03RayNkEMsFccGId-73" edge="1">
          <mxGeometry relative="1" as="geometry">
            <mxPoint x="320" y="880" as="targetPoint" />
            <Array as="points">
              <mxPoint x="460" y="658" />
              <mxPoint x="460" y="840" />
              <mxPoint x="320" y="840" />
            </Array>
          </mxGeometry>
        </mxCell>
        <mxCell id="wYdP03RayNkEMsFccGId-73" value="&lt;b&gt;Choice&lt;br&gt;==&lt;br&gt;3&lt;/b&gt;" style="rhombus;whiteSpace=wrap;html=1;" parent="WIyWlLk6GJQsqaUBKTNV-1" vertex="1">
          <mxGeometry x="500" y="617.5" width="80" height="80" as="geometry" />
        </mxCell>
        <mxCell id="wYdP03RayNkEMsFccGId-74" value="" style="endArrow=classic;html=1;rounded=0;entryX=0.5;entryY=0;entryDx=0;entryDy=0;" parent="WIyWlLk6GJQsqaUBKTNV-1" source="wYdP03RayNkEMsFccGId-73" target="wYdP03RayNkEMsFccGId-75" edge="1">
          <mxGeometry width="50" height="50" relative="1" as="geometry">
            <mxPoint x="440" y="590" as="sourcePoint" />
            <mxPoint x="450" y="610" as="targetPoint" />
          </mxGeometry>
        </mxCell>
        <mxCell id="wYdP03RayNkEMsFccGId-75" value="&lt;b&gt;Choice&amp;nbsp;&lt;br&gt;==&lt;br&gt;4&lt;/b&gt;" style="rhombus;whiteSpace=wrap;html=1;" parent="WIyWlLk6GJQsqaUBKTNV-1" vertex="1">
          <mxGeometry x="495" y="790" width="90" height="75" as="geometry" />
        </mxCell>
        <mxCell id="wYdP03RayNkEMsFccGId-76" value="" style="endArrow=classic;html=1;rounded=0;exitX=0.5;exitY=1;exitDx=0;exitDy=0;" parent="WIyWlLk6GJQsqaUBKTNV-1" source="wYdP03RayNkEMsFccGId-75" target="wYdP03RayNkEMsFccGId-77" edge="1">
          <mxGeometry width="50" height="50" relative="1" as="geometry">
            <mxPoint x="440" y="790" as="sourcePoint" />
            <mxPoint x="450" y="1060" as="targetPoint" />
          </mxGeometry>
        </mxCell>
        <mxCell id="wYdP03RayNkEMsFccGId-77" value="&lt;b&gt;End&lt;/b&gt;" style="ellipse;whiteSpace=wrap;html=1;" parent="WIyWlLk6GJQsqaUBKTNV-1" vertex="1">
          <mxGeometry x="480" y="1560" width="120" height="50" as="geometry" />
        </mxCell>
        <mxCell id="wYdP03RayNkEMsFccGId-78" value="" style="endArrow=classic;html=1;rounded=0;exitX=0.5;exitY=1;exitDx=0;exitDy=0;entryX=0.5;entryY=0;entryDx=0;entryDy=0;" parent="WIyWlLk6GJQsqaUBKTNV-1" source="wYdP03RayNkEMsFccGId-67" target="wYdP03RayNkEMsFccGId-79" edge="1">
          <mxGeometry width="50" height="50" relative="1" as="geometry">
            <mxPoint x="540" y="160" as="sourcePoint" />
            <mxPoint x="540" y="300" as="targetPoint" />
          </mxGeometry>
        </mxCell>
        <mxCell id="wYdP03RayNkEMsFccGId-79" value="&lt;b&gt;Input User Choice&lt;/b&gt;" style="shape=parallelogram;perimeter=parallelogramPerimeter;whiteSpace=wrap;html=1;fixedSize=1;" parent="WIyWlLk6GJQsqaUBKTNV-1" vertex="1">
          <mxGeometry x="430" y="200" width="220" height="60" as="geometry" />
        </mxCell>
        <mxCell id="wYdP03RayNkEMsFccGId-80" value="" style="endArrow=classic;html=1;rounded=0;exitX=0;exitY=0.5;exitDx=0;exitDy=0;entryX=1;entryY=0.5;entryDx=0;entryDy=0;" parent="WIyWlLk6GJQsqaUBKTNV-1" source="wYdP03RayNkEMsFccGId-69" target="wYdP03RayNkEMsFccGId-81" edge="1">
          <mxGeometry width="50" height="50" relative="1" as="geometry">
            <mxPoint x="520" y="330" as="sourcePoint" />
            <mxPoint x="420" y="330" as="targetPoint" />
          </mxGeometry>
        </mxCell>
        <mxCell id="wYdP03RayNkEMsFccGId-81" value="&lt;b&gt;Read Lands.txt&lt;/b&gt;" style="rounded=0;whiteSpace=wrap;html=1;" parent="WIyWlLk6GJQsqaUBKTNV-1" vertex="1">
          <mxGeometry x="320" y="300" width="110" height="50" as="geometry" />
        </mxCell>
        <mxCell id="wYdP03RayNkEMsFccGId-82" value="" style="endArrow=classic;html=1;rounded=0;exitX=0.5;exitY=1;exitDx=0;exitDy=0;" parent="WIyWlLk6GJQsqaUBKTNV-1" source="wYdP03RayNkEMsFccGId-81" edge="1">
          <mxGeometry width="50" height="50" relative="1" as="geometry">
            <mxPoint x="520" y="330" as="sourcePoint" />
            <mxPoint x="375" y="400" as="targetPoint" />
            <Array as="points" />
          </mxGeometry>
        </mxCell>
        <mxCell id="7vTTvqhq77VGA1ktP-LC-34" style="edgeStyle=orthogonalEdgeStyle;rounded=0;orthogonalLoop=1;jettySize=auto;html=1;exitX=0.5;exitY=1;exitDx=0;exitDy=0;entryX=0.5;entryY=0;entryDx=0;entryDy=0;" edge="1" parent="WIyWlLk6GJQsqaUBKTNV-1" source="wYdP03RayNkEMsFccGId-83" target="7vTTvqhq77VGA1ktP-LC-32">
          <mxGeometry relative="1" as="geometry" />
        </mxCell>
        <mxCell id="wYdP03RayNkEMsFccGId-83" value="&lt;b&gt;Display&lt;/b&gt;&lt;div&gt;&lt;b&gt;1.Do you want to rent a land?&lt;/b&gt;&lt;/div&gt;&lt;div&gt;&lt;b&gt;2.Do you want to return a land?&lt;/b&gt;&lt;/div&gt;&lt;div&gt;&lt;b&gt;3.Main menu&lt;/b&gt;&lt;/div&gt;&lt;div&gt;&lt;b&gt;&lt;br&gt;&lt;/b&gt;&lt;/div&gt;" style="shape=parallelogram;perimeter=parallelogramPerimeter;whiteSpace=wrap;html=1;fixedSize=1;" parent="WIyWlLk6GJQsqaUBKTNV-1" vertex="1">
          <mxGeometry x="275" y="457" width="200" height="80" as="geometry" />
        </mxCell>
        <mxCell id="7vTTvqhq77VGA1ktP-LC-37" style="edgeStyle=orthogonalEdgeStyle;rounded=0;orthogonalLoop=1;jettySize=auto;html=1;exitX=0;exitY=0.5;exitDx=0;exitDy=0;entryX=1;entryY=0.5;entryDx=0;entryDy=0;" edge="1" parent="WIyWlLk6GJQsqaUBKTNV-1" source="wYdP03RayNkEMsFccGId-84" target="wYdP03RayNkEMsFccGId-85">
          <mxGeometry relative="1" as="geometry" />
        </mxCell>
        <mxCell id="7vTTvqhq77VGA1ktP-LC-39" style="edgeStyle=orthogonalEdgeStyle;rounded=0;orthogonalLoop=1;jettySize=auto;html=1;exitX=0.5;exitY=1;exitDx=0;exitDy=0;entryX=0.5;entryY=0;entryDx=0;entryDy=0;" edge="1" parent="WIyWlLk6GJQsqaUBKTNV-1" source="wYdP03RayNkEMsFccGId-84" target="7vTTvqhq77VGA1ktP-LC-28">
          <mxGeometry relative="1" as="geometry" />
        </mxCell>
        <mxCell id="wYdP03RayNkEMsFccGId-84" value="&lt;b&gt;Choice&amp;nbsp;&lt;br&gt;==&lt;br&gt;1&lt;/b&gt;" style="rhombus;whiteSpace=wrap;html=1;" parent="WIyWlLk6GJQsqaUBKTNV-1" vertex="1">
          <mxGeometry x="336.25" y="643.75" width="82.5" height="82.5" as="geometry" />
        </mxCell>
        <mxCell id="7vTTvqhq77VGA1ktP-LC-38" style="edgeStyle=orthogonalEdgeStyle;rounded=0;orthogonalLoop=1;jettySize=auto;html=1;exitX=0;exitY=0.5;exitDx=0;exitDy=0;entryX=1;entryY=0.5;entryDx=0;entryDy=0;" edge="1" parent="WIyWlLk6GJQsqaUBKTNV-1" source="wYdP03RayNkEMsFccGId-85" target="wYdP03RayNkEMsFccGId-86">
          <mxGeometry relative="1" as="geometry" />
        </mxCell>
        <mxCell id="7vTTvqhq77VGA1ktP-LC-43" value="" style="edgeStyle=orthogonalEdgeStyle;rounded=0;orthogonalLoop=1;jettySize=auto;html=1;" edge="1" parent="WIyWlLk6GJQsqaUBKTNV-1" source="wYdP03RayNkEMsFccGId-85" target="7vTTvqhq77VGA1ktP-LC-42">
          <mxGeometry relative="1" as="geometry" />
        </mxCell>
        <mxCell id="wYdP03RayNkEMsFccGId-85" value="&lt;b&gt;Choice&amp;nbsp;&lt;/b&gt;&lt;div&gt;&lt;b&gt;==&lt;/b&gt;&lt;/div&gt;&lt;div&gt;&lt;b&gt;2&lt;/b&gt;&lt;/div&gt;" style="rhombus;whiteSpace=wrap;html=1;" parent="WIyWlLk6GJQsqaUBKTNV-1" vertex="1">
          <mxGeometry x="227.5" y="643.75" width="82.5" height="82.5" as="geometry" />
        </mxCell>
        <mxCell id="7vTTvqhq77VGA1ktP-LC-45" value="" style="edgeStyle=orthogonalEdgeStyle;rounded=0;orthogonalLoop=1;jettySize=auto;html=1;" edge="1" parent="WIyWlLk6GJQsqaUBKTNV-1" source="wYdP03RayNkEMsFccGId-86" target="7vTTvqhq77VGA1ktP-LC-44">
          <mxGeometry relative="1" as="geometry" />
        </mxCell>
        <mxCell id="wYdP03RayNkEMsFccGId-86" value="&lt;b&gt;Choice&lt;/b&gt;&lt;div&gt;&lt;b&gt;==&amp;nbsp;&lt;/b&gt;&lt;/div&gt;&lt;div&gt;&lt;b&gt;3&lt;/b&gt;&lt;/div&gt;" style="rhombus;whiteSpace=wrap;html=1;" parent="WIyWlLk6GJQsqaUBKTNV-1" vertex="1">
          <mxGeometry x="120" y="642.5" width="80" height="85" as="geometry" />
        </mxCell>
        <mxCell id="wYdP03RayNkEMsFccGId-216" value="" style="edgeStyle=orthogonalEdgeStyle;rounded=0;orthogonalLoop=1;jettySize=auto;html=1;" parent="WIyWlLk6GJQsqaUBKTNV-1" source="wYdP03RayNkEMsFccGId-214" target="wYdP03RayNkEMsFccGId-215" edge="1">
          <mxGeometry relative="1" as="geometry" />
        </mxCell>
        <mxCell id="wYdP03RayNkEMsFccGId-214" value="&lt;b&gt;Read Lands.txt&lt;/b&gt;" style="rounded=0;whiteSpace=wrap;html=1;" parent="WIyWlLk6GJQsqaUBKTNV-1" vertex="1">
          <mxGeometry x="250" y="880" width="140" height="60" as="geometry" />
        </mxCell>
        <mxCell id="wYdP03RayNkEMsFccGId-218" value="" style="edgeStyle=orthogonalEdgeStyle;rounded=0;orthogonalLoop=1;jettySize=auto;html=1;" parent="WIyWlLk6GJQsqaUBKTNV-1" source="wYdP03RayNkEMsFccGId-215" target="wYdP03RayNkEMsFccGId-217" edge="1">
          <mxGeometry relative="1" as="geometry" />
        </mxCell>
        <mxCell id="wYdP03RayNkEMsFccGId-215" value="&lt;b&gt;Display all Lands&lt;/b&gt;" style="shape=parallelogram;perimeter=parallelogramPerimeter;whiteSpace=wrap;html=1;fixedSize=1;rounded=0;" parent="WIyWlLk6GJQsqaUBKTNV-1" vertex="1">
          <mxGeometry x="250" y="960" width="140" height="50" as="geometry" />
        </mxCell>
        <mxCell id="7vTTvqhq77VGA1ktP-LC-11" style="edgeStyle=orthogonalEdgeStyle;rounded=0;orthogonalLoop=1;jettySize=auto;html=1;exitX=0.5;exitY=1;exitDx=0;exitDy=0;entryX=0.5;entryY=0;entryDx=0;entryDy=0;" edge="1" parent="WIyWlLk6GJQsqaUBKTNV-1" source="wYdP03RayNkEMsFccGId-217" target="7vTTvqhq77VGA1ktP-LC-3">
          <mxGeometry relative="1" as="geometry" />
        </mxCell>
        <mxCell id="wYdP03RayNkEMsFccGId-217" value="&lt;b&gt;Input Kitta Number&lt;/b&gt;" style="shape=parallelogram;perimeter=parallelogramPerimeter;whiteSpace=wrap;html=1;fixedSize=1;rounded=0;" parent="WIyWlLk6GJQsqaUBKTNV-1" vertex="1">
          <mxGeometry x="250" y="1040" width="140" height="45" as="geometry" />
        </mxCell>
        <mxCell id="7vTTvqhq77VGA1ktP-LC-15" style="edgeStyle=orthogonalEdgeStyle;rounded=0;orthogonalLoop=1;jettySize=auto;html=1;exitX=0.5;exitY=1;exitDx=0;exitDy=0;entryX=0.5;entryY=0;entryDx=0;entryDy=0;" edge="1" parent="WIyWlLk6GJQsqaUBKTNV-1" source="wYdP03RayNkEMsFccGId-219" target="7vTTvqhq77VGA1ktP-LC-9">
          <mxGeometry relative="1" as="geometry" />
        </mxCell>
        <mxCell id="wYdP03RayNkEMsFccGId-219" value="&lt;b&gt;Input month&amp;nbsp;&lt;/b&gt;&lt;div&gt;&lt;b&gt;of borrowed&lt;/b&gt;&lt;/div&gt;" style="shape=parallelogram;perimeter=parallelogramPerimeter;whiteSpace=wrap;html=1;fixedSize=1;rounded=0;" parent="WIyWlLk6GJQsqaUBKTNV-1" vertex="1">
          <mxGeometry x="260" y="1360" width="120" height="50" as="geometry" />
        </mxCell>
        <mxCell id="7vTTvqhq77VGA1ktP-LC-20" value="" style="edgeStyle=orthogonalEdgeStyle;rounded=0;orthogonalLoop=1;jettySize=auto;html=1;" edge="1" parent="WIyWlLk6GJQsqaUBKTNV-1" source="wYdP03RayNkEMsFccGId-221" target="7vTTvqhq77VGA1ktP-LC-19">
          <mxGeometry relative="1" as="geometry" />
        </mxCell>
        <mxCell id="wYdP03RayNkEMsFccGId-221" value="&lt;b&gt;Print Bill&lt;/b&gt;" style="whiteSpace=wrap;html=1;rounded=0;" parent="WIyWlLk6GJQsqaUBKTNV-1" vertex="1">
          <mxGeometry x="270" y="1530" width="100" height="40" as="geometry" />
        </mxCell>
        <mxCell id="wYdP03RayNkEMsFccGId-225" value="&lt;b&gt;Yes&lt;/b&gt;" style="text;html=1;align=center;verticalAlign=middle;resizable=0;points=[];autosize=1;strokeColor=none;fillColor=none;" parent="WIyWlLk6GJQsqaUBKTNV-1" vertex="1">
          <mxGeometry x="455" y="320" width="40" height="30" as="geometry" />
        </mxCell>
        <mxCell id="wYdP03RayNkEMsFccGId-226" value="&lt;b&gt;Yes&lt;/b&gt;" style="text;html=1;align=center;verticalAlign=middle;resizable=0;points=[];autosize=1;strokeColor=none;fillColor=none;" parent="WIyWlLk6GJQsqaUBKTNV-1" vertex="1">
          <mxGeometry x="590" y="440" width="40" height="30" as="geometry" />
        </mxCell>
        <mxCell id="wYdP03RayNkEMsFccGId-227" value="&lt;b&gt;Yes&lt;/b&gt;" style="text;html=1;align=center;verticalAlign=middle;resizable=0;points=[];autosize=1;strokeColor=none;fillColor=none;" parent="WIyWlLk6GJQsqaUBKTNV-1" vertex="1">
          <mxGeometry x="470" y="660" width="40" height="30" as="geometry" />
        </mxCell>
        <mxCell id="wYdP03RayNkEMsFccGId-234" value="&lt;b&gt;No&lt;/b&gt;" style="text;html=1;align=center;verticalAlign=middle;resizable=0;points=[];autosize=1;strokeColor=none;fillColor=none;" parent="WIyWlLk6GJQsqaUBKTNV-1" vertex="1">
          <mxGeometry x="540" y="482" width="40" height="30" as="geometry" />
        </mxCell>
        <mxCell id="wYdP03RayNkEMsFccGId-235" value="&lt;b&gt;No&lt;/b&gt;" style="text;html=1;align=center;verticalAlign=middle;resizable=0;points=[];autosize=1;strokeColor=none;fillColor=none;" parent="WIyWlLk6GJQsqaUBKTNV-1" vertex="1">
          <mxGeometry x="500" y="697.5" width="40" height="30" as="geometry" />
        </mxCell>
        <mxCell id="7vTTvqhq77VGA1ktP-LC-33" style="edgeStyle=orthogonalEdgeStyle;rounded=0;orthogonalLoop=1;jettySize=auto;html=1;exitX=0.5;exitY=1;exitDx=0;exitDy=0;entryX=0.5;entryY=0;entryDx=0;entryDy=0;" edge="1" parent="WIyWlLk6GJQsqaUBKTNV-1" source="CCjqPQjAsDBOnnWErIDQ-2" target="wYdP03RayNkEMsFccGId-83">
          <mxGeometry relative="1" as="geometry" />
        </mxCell>
        <mxCell id="CCjqPQjAsDBOnnWErIDQ-2" value="&lt;b&gt;Display Lands&lt;/b&gt;" style="shape=parallelogram;perimeter=parallelogramPerimeter;whiteSpace=wrap;html=1;fixedSize=1;" parent="WIyWlLk6GJQsqaUBKTNV-1" vertex="1">
          <mxGeometry x="310" y="380" width="120" height="40" as="geometry" />
        </mxCell>
        <mxCell id="7vTTvqhq77VGA1ktP-LC-1" style="edgeStyle=orthogonalEdgeStyle;rounded=0;orthogonalLoop=1;jettySize=auto;html=1;exitX=1;exitY=0.5;exitDx=0;exitDy=0;" edge="1" parent="WIyWlLk6GJQsqaUBKTNV-1" source="CCjqPQjAsDBOnnWErIDQ-375">
          <mxGeometry relative="1" as="geometry">
            <mxPoint x="1100" y="1260" as="targetPoint" />
          </mxGeometry>
        </mxCell>
        <mxCell id="CCjqPQjAsDBOnnWErIDQ-375" value="&lt;b&gt;Is Kitta&amp;nbsp;&lt;br&gt;valid&lt;/b&gt;" style="rhombus;whiteSpace=wrap;html=1;rounded=0;" parent="WIyWlLk6GJQsqaUBKTNV-1" vertex="1">
          <mxGeometry x="975" y="1220" width="85" height="80" as="geometry" />
        </mxCell>
        <mxCell id="CCjqPQjAsDBOnnWErIDQ-422" style="edgeStyle=orthogonalEdgeStyle;rounded=0;orthogonalLoop=1;jettySize=auto;html=1;exitX=0.5;exitY=1;exitDx=0;exitDy=0;entryX=0.5;entryY=0;entryDx=0;entryDy=0;" parent="WIyWlLk6GJQsqaUBKTNV-1" source="CCjqPQjAsDBOnnWErIDQ-376" target="CCjqPQjAsDBOnnWErIDQ-375" edge="1">
          <mxGeometry relative="1" as="geometry" />
        </mxCell>
        <mxCell id="CCjqPQjAsDBOnnWErIDQ-376" value="&lt;b&gt;Input kitta number&lt;/b&gt;" style="shape=parallelogram;perimeter=parallelogramPerimeter;whiteSpace=wrap;html=1;fixedSize=1;rounded=0;" parent="WIyWlLk6GJQsqaUBKTNV-1" vertex="1">
          <mxGeometry x="950" y="1145" width="140" height="50" as="geometry" />
        </mxCell>
        <mxCell id="CCjqPQjAsDBOnnWErIDQ-433" value="" style="edgeStyle=orthogonalEdgeStyle;rounded=0;orthogonalLoop=1;jettySize=auto;html=1;" parent="WIyWlLk6GJQsqaUBKTNV-1" source="CCjqPQjAsDBOnnWErIDQ-377" target="CCjqPQjAsDBOnnWErIDQ-432" edge="1">
          <mxGeometry relative="1" as="geometry" />
        </mxCell>
        <mxCell id="CCjqPQjAsDBOnnWErIDQ-377" value="&lt;b&gt;Print Bill&lt;/b&gt;" style="shape=parallelogram;perimeter=parallelogramPerimeter;whiteSpace=wrap;html=1;fixedSize=1;rounded=0;" parent="WIyWlLk6GJQsqaUBKTNV-1" vertex="1">
          <mxGeometry x="740" y="1520" width="120" height="50" as="geometry" />
        </mxCell>
        <mxCell id="CCjqPQjAsDBOnnWErIDQ-418" style="edgeStyle=orthogonalEdgeStyle;rounded=0;orthogonalLoop=1;jettySize=auto;html=1;exitX=0.5;exitY=1;exitDx=0;exitDy=0;entryX=0.5;entryY=0;entryDx=0;entryDy=0;" parent="WIyWlLk6GJQsqaUBKTNV-1" source="CCjqPQjAsDBOnnWErIDQ-378" target="CCjqPQjAsDBOnnWErIDQ-411" edge="1">
          <mxGeometry relative="1" as="geometry" />
        </mxCell>
        <mxCell id="CCjqPQjAsDBOnnWErIDQ-378" value="&lt;b&gt;User Choice&lt;/b&gt;" style="shape=parallelogram;perimeter=parallelogramPerimeter;whiteSpace=wrap;html=1;fixedSize=1;rounded=0;" parent="WIyWlLk6GJQsqaUBKTNV-1" vertex="1">
          <mxGeometry x="735" y="1230" width="130" height="60" as="geometry" />
        </mxCell>
        <mxCell id="CCjqPQjAsDBOnnWErIDQ-424" style="edgeStyle=orthogonalEdgeStyle;rounded=0;orthogonalLoop=1;jettySize=auto;html=1;exitX=0.5;exitY=1;exitDx=0;exitDy=0;entryX=0.5;entryY=0;entryDx=0;entryDy=0;" parent="WIyWlLk6GJQsqaUBKTNV-1" source="CCjqPQjAsDBOnnWErIDQ-379" target="CCjqPQjAsDBOnnWErIDQ-415" edge="1">
          <mxGeometry relative="1" as="geometry" />
        </mxCell>
        <mxCell id="CCjqPQjAsDBOnnWErIDQ-379" value="&lt;b&gt;Input month for rent&lt;/b&gt;" style="shape=parallelogram;perimeter=parallelogramPerimeter;whiteSpace=wrap;html=1;fixedSize=1;rounded=0;" parent="WIyWlLk6GJQsqaUBKTNV-1" vertex="1">
          <mxGeometry x="950" y="1325" width="150" height="50" as="geometry" />
        </mxCell>
        <mxCell id="CCjqPQjAsDBOnnWErIDQ-413" style="edgeStyle=orthogonalEdgeStyle;rounded=0;orthogonalLoop=1;jettySize=auto;html=1;exitX=0.5;exitY=1;exitDx=0;exitDy=0;entryX=0.5;entryY=0;entryDx=0;entryDy=0;" parent="WIyWlLk6GJQsqaUBKTNV-1" source="CCjqPQjAsDBOnnWErIDQ-380" target="CCjqPQjAsDBOnnWErIDQ-378" edge="1">
          <mxGeometry relative="1" as="geometry" />
        </mxCell>
        <mxCell id="CCjqPQjAsDBOnnWErIDQ-380" value="&lt;b&gt;Display&lt;/b&gt;&lt;div&gt;&lt;b&gt;1.Do you want to rent another&amp;nbsp;&lt;/b&gt;&lt;/div&gt;&lt;div&gt;&lt;b&gt;2.Make a bill&lt;/b&gt;&lt;/div&gt;" style="shape=parallelogram;perimeter=parallelogramPerimeter;whiteSpace=wrap;html=1;fixedSize=1;rounded=0;" parent="WIyWlLk6GJQsqaUBKTNV-1" vertex="1">
          <mxGeometry x="720" y="1140" width="160" height="60" as="geometry" />
        </mxCell>
        <mxCell id="CCjqPQjAsDBOnnWErIDQ-381" value="&lt;b&gt;Read Lands.txt&lt;/b&gt;" style="rounded=0;whiteSpace=wrap;html=1;" parent="WIyWlLk6GJQsqaUBKTNV-1" vertex="1">
          <mxGeometry x="725" y="190" width="140" height="40" as="geometry" />
        </mxCell>
        <mxCell id="CCjqPQjAsDBOnnWErIDQ-382" style="edgeStyle=orthogonalEdgeStyle;rounded=0;orthogonalLoop=1;jettySize=auto;html=1;exitX=0.5;exitY=1;exitDx=0;exitDy=0;" parent="WIyWlLk6GJQsqaUBKTNV-1" source="CCjqPQjAsDBOnnWErIDQ-383" target="CCjqPQjAsDBOnnWErIDQ-393" edge="1">
          <mxGeometry relative="1" as="geometry" />
        </mxCell>
        <mxCell id="CCjqPQjAsDBOnnWErIDQ-383" value="&lt;b&gt;Input kitta number&amp;nbsp;&lt;/b&gt;" style="shape=parallelogram;perimeter=parallelogramPerimeter;whiteSpace=wrap;html=1;fixedSize=1;rounded=0;" parent="WIyWlLk6GJQsqaUBKTNV-1" vertex="1">
          <mxGeometry x="732.5" y="320" width="135" height="50" as="geometry" />
        </mxCell>
        <mxCell id="CCjqPQjAsDBOnnWErIDQ-384" style="edgeStyle=orthogonalEdgeStyle;rounded=0;orthogonalLoop=1;jettySize=auto;html=1;exitX=0.5;exitY=1;exitDx=0;exitDy=0;entryX=0.5;entryY=0;entryDx=0;entryDy=0;" parent="WIyWlLk6GJQsqaUBKTNV-1" source="CCjqPQjAsDBOnnWErIDQ-385" target="CCjqPQjAsDBOnnWErIDQ-388" edge="1">
          <mxGeometry relative="1" as="geometry" />
        </mxCell>
        <mxCell id="CCjqPQjAsDBOnnWErIDQ-385" value="&lt;b&gt;Input month&amp;nbsp;&lt;/b&gt;&lt;div&gt;&lt;b&gt;for rent&lt;/b&gt;&lt;/div&gt;" style="shape=parallelogram;perimeter=parallelogramPerimeter;whiteSpace=wrap;html=1;fixedSize=1;rounded=0;" parent="WIyWlLk6GJQsqaUBKTNV-1" vertex="1">
          <mxGeometry x="742.5" y="960" width="120" height="50" as="geometry" />
        </mxCell>
        <mxCell id="CCjqPQjAsDBOnnWErIDQ-386" style="edgeStyle=orthogonalEdgeStyle;rounded=0;orthogonalLoop=1;jettySize=auto;html=1;exitX=1;exitY=0.5;exitDx=0;exitDy=0;entryX=1;entryY=0.5;entryDx=0;entryDy=0;" parent="WIyWlLk6GJQsqaUBKTNV-1" source="CCjqPQjAsDBOnnWErIDQ-388" target="CCjqPQjAsDBOnnWErIDQ-385" edge="1">
          <mxGeometry relative="1" as="geometry">
            <Array as="points">
              <mxPoint x="900" y="1080" />
              <mxPoint x="900" y="985" />
            </Array>
          </mxGeometry>
        </mxCell>
        <mxCell id="CCjqPQjAsDBOnnWErIDQ-387" style="edgeStyle=orthogonalEdgeStyle;rounded=0;orthogonalLoop=1;jettySize=auto;html=1;exitX=0.5;exitY=1;exitDx=0;exitDy=0;entryX=0.5;entryY=0;entryDx=0;entryDy=0;" parent="WIyWlLk6GJQsqaUBKTNV-1" source="CCjqPQjAsDBOnnWErIDQ-388" target="CCjqPQjAsDBOnnWErIDQ-380" edge="1">
          <mxGeometry relative="1" as="geometry" />
        </mxCell>
        <mxCell id="CCjqPQjAsDBOnnWErIDQ-388" value="&lt;b&gt;Is month&amp;nbsp;&lt;br&gt;valid&lt;/b&gt;" style="rhombus;whiteSpace=wrap;html=1;rounded=0;" parent="WIyWlLk6GJQsqaUBKTNV-1" vertex="1">
          <mxGeometry x="760" y="1040" width="80" height="80" as="geometry" />
        </mxCell>
        <mxCell id="CCjqPQjAsDBOnnWErIDQ-389" style="edgeStyle=orthogonalEdgeStyle;rounded=0;orthogonalLoop=1;jettySize=auto;html=1;exitX=0.5;exitY=1;exitDx=0;exitDy=0;entryX=0.5;entryY=0;entryDx=0;entryDy=0;" parent="WIyWlLk6GJQsqaUBKTNV-1" source="CCjqPQjAsDBOnnWErIDQ-390" target="CCjqPQjAsDBOnnWErIDQ-383" edge="1">
          <mxGeometry relative="1" as="geometry" />
        </mxCell>
        <mxCell id="CCjqPQjAsDBOnnWErIDQ-390" value="&lt;b&gt;Display all Lands&lt;/b&gt;" style="shape=parallelogram;perimeter=parallelogramPerimeter;whiteSpace=wrap;html=1;fixedSize=1;" parent="WIyWlLk6GJQsqaUBKTNV-1" vertex="1">
          <mxGeometry x="735" y="250" width="130" height="50" as="geometry" />
        </mxCell>
        <mxCell id="CCjqPQjAsDBOnnWErIDQ-391" style="edgeStyle=orthogonalEdgeStyle;rounded=0;orthogonalLoop=1;jettySize=auto;html=1;exitX=1;exitY=0.5;exitDx=0;exitDy=0;entryX=1;entryY=0.5;entryDx=0;entryDy=0;" parent="WIyWlLk6GJQsqaUBKTNV-1" source="CCjqPQjAsDBOnnWErIDQ-393" target="CCjqPQjAsDBOnnWErIDQ-383" edge="1">
          <mxGeometry relative="1" as="geometry">
            <mxPoint x="905" y="370" as="targetPoint" />
            <Array as="points">
              <mxPoint x="890" y="430" />
              <mxPoint x="890" y="345" />
            </Array>
          </mxGeometry>
        </mxCell>
        <mxCell id="CCjqPQjAsDBOnnWErIDQ-392" style="edgeStyle=orthogonalEdgeStyle;rounded=0;orthogonalLoop=1;jettySize=auto;html=1;exitX=0.5;exitY=1;exitDx=0;exitDy=0;entryX=0.5;entryY=0;entryDx=0;entryDy=0;" parent="WIyWlLk6GJQsqaUBKTNV-1" source="CCjqPQjAsDBOnnWErIDQ-393" target="CCjqPQjAsDBOnnWErIDQ-396" edge="1">
          <mxGeometry relative="1" as="geometry" />
        </mxCell>
        <mxCell id="CCjqPQjAsDBOnnWErIDQ-393" value="&lt;b&gt;Is kitta&amp;nbsp;&lt;/b&gt;&lt;div&gt;&lt;b&gt;Valid&lt;/b&gt;&lt;/div&gt;" style="rhombus;whiteSpace=wrap;html=1;" parent="WIyWlLk6GJQsqaUBKTNV-1" vertex="1">
          <mxGeometry x="760" y="397.5" width="80" height="65" as="geometry" />
        </mxCell>
        <mxCell id="CCjqPQjAsDBOnnWErIDQ-394" value="" style="edgeStyle=orthogonalEdgeStyle;rounded=0;orthogonalLoop=1;jettySize=auto;html=1;" parent="WIyWlLk6GJQsqaUBKTNV-1" source="CCjqPQjAsDBOnnWErIDQ-396" target="CCjqPQjAsDBOnnWErIDQ-398" edge="1">
          <mxGeometry relative="1" as="geometry" />
        </mxCell>
        <mxCell id="CCjqPQjAsDBOnnWErIDQ-395" style="edgeStyle=orthogonalEdgeStyle;rounded=0;orthogonalLoop=1;jettySize=auto;html=1;exitX=0.5;exitY=1;exitDx=0;exitDy=0;entryX=0.5;entryY=0;entryDx=0;entryDy=0;" parent="WIyWlLk6GJQsqaUBKTNV-1" source="CCjqPQjAsDBOnnWErIDQ-396" target="CCjqPQjAsDBOnnWErIDQ-398" edge="1">
          <mxGeometry relative="1" as="geometry" />
        </mxCell>
        <mxCell id="CCjqPQjAsDBOnnWErIDQ-396" value="&lt;b&gt;Input Name&lt;/b&gt;" style="shape=parallelogram;perimeter=parallelogramPerimeter;whiteSpace=wrap;html=1;fixedSize=1;rounded=0;" parent="WIyWlLk6GJQsqaUBKTNV-1" vertex="1">
          <mxGeometry x="732.5" y="487" width="135" height="50" as="geometry" />
        </mxCell>
        <mxCell id="CCjqPQjAsDBOnnWErIDQ-397" style="edgeStyle=orthogonalEdgeStyle;rounded=0;orthogonalLoop=1;jettySize=auto;html=1;exitX=1;exitY=0.5;exitDx=0;exitDy=0;entryX=1;entryY=0.5;entryDx=0;entryDy=0;" parent="WIyWlLk6GJQsqaUBKTNV-1" source="CCjqPQjAsDBOnnWErIDQ-398" target="CCjqPQjAsDBOnnWErIDQ-396" edge="1">
          <mxGeometry relative="1" as="geometry">
            <mxPoint x="892.5" y="535" as="targetPoint" />
            <Array as="points">
              <mxPoint x="895" y="593" />
              <mxPoint x="895" y="512" />
            </Array>
          </mxGeometry>
        </mxCell>
        <mxCell id="CCjqPQjAsDBOnnWErIDQ-398" value="&lt;b&gt;Is name&lt;br&gt;Valid&lt;/b&gt;" style="rhombus;whiteSpace=wrap;html=1;" parent="WIyWlLk6GJQsqaUBKTNV-1" vertex="1">
          <mxGeometry x="760" y="560" width="80" height="65" as="geometry" />
        </mxCell>
        <mxCell id="CCjqPQjAsDBOnnWErIDQ-399" style="edgeStyle=orthogonalEdgeStyle;rounded=0;orthogonalLoop=1;jettySize=auto;html=1;exitX=0.5;exitY=1;exitDx=0;exitDy=0;entryX=0.5;entryY=0;entryDx=0;entryDy=0;" parent="WIyWlLk6GJQsqaUBKTNV-1" source="CCjqPQjAsDBOnnWErIDQ-400" target="CCjqPQjAsDBOnnWErIDQ-403" edge="1">
          <mxGeometry relative="1" as="geometry" />
        </mxCell>
        <mxCell id="CCjqPQjAsDBOnnWErIDQ-400" value="&lt;b&gt;Input contact number&amp;nbsp;&lt;/b&gt;" style="shape=parallelogram;perimeter=parallelogramPerimeter;whiteSpace=wrap;html=1;fixedSize=1;rounded=0;" parent="WIyWlLk6GJQsqaUBKTNV-1" vertex="1">
          <mxGeometry x="735" y="640" width="150" height="50" as="geometry" />
        </mxCell>
        <mxCell id="CCjqPQjAsDBOnnWErIDQ-401" style="edgeStyle=orthogonalEdgeStyle;rounded=0;orthogonalLoop=1;jettySize=auto;html=1;exitX=1;exitY=0.5;exitDx=0;exitDy=0;entryX=1;entryY=0.5;entryDx=0;entryDy=0;" parent="WIyWlLk6GJQsqaUBKTNV-1" source="CCjqPQjAsDBOnnWErIDQ-403" target="CCjqPQjAsDBOnnWErIDQ-400" edge="1">
          <mxGeometry relative="1" as="geometry">
            <mxPoint x="905" y="705" as="targetPoint" />
            <Array as="points">
              <mxPoint x="900" y="745" />
              <mxPoint x="900" y="665" />
            </Array>
          </mxGeometry>
        </mxCell>
        <mxCell id="CCjqPQjAsDBOnnWErIDQ-402" style="edgeStyle=orthogonalEdgeStyle;rounded=0;orthogonalLoop=1;jettySize=auto;html=1;exitX=0.5;exitY=1;exitDx=0;exitDy=0;entryX=0.5;entryY=0;entryDx=0;entryDy=0;" parent="WIyWlLk6GJQsqaUBKTNV-1" source="CCjqPQjAsDBOnnWErIDQ-403" target="CCjqPQjAsDBOnnWErIDQ-407" edge="1">
          <mxGeometry relative="1" as="geometry" />
        </mxCell>
        <mxCell id="CCjqPQjAsDBOnnWErIDQ-403" value="&lt;b&gt;Is contact&amp;nbsp;&lt;/b&gt;&lt;div&gt;&lt;b&gt;Valid&lt;/b&gt;&lt;/div&gt;" style="rhombus;whiteSpace=wrap;html=1;" parent="WIyWlLk6GJQsqaUBKTNV-1" vertex="1">
          <mxGeometry x="760" y="710" width="85" height="70" as="geometry" />
        </mxCell>
        <mxCell id="CCjqPQjAsDBOnnWErIDQ-404" style="edgeStyle=orthogonalEdgeStyle;rounded=0;orthogonalLoop=1;jettySize=auto;html=1;exitX=0.5;exitY=1;exitDx=0;exitDy=0;entryX=0.438;entryY=-0.016;entryDx=0;entryDy=0;entryPerimeter=0;" parent="WIyWlLk6GJQsqaUBKTNV-1" source="CCjqPQjAsDBOnnWErIDQ-381" target="CCjqPQjAsDBOnnWErIDQ-390" edge="1">
          <mxGeometry relative="1" as="geometry" />
        </mxCell>
        <mxCell id="CCjqPQjAsDBOnnWErIDQ-405" style="edgeStyle=orthogonalEdgeStyle;rounded=0;orthogonalLoop=1;jettySize=auto;html=1;exitX=0.5;exitY=1;exitDx=0;exitDy=0;entryX=0.441;entryY=0.04;entryDx=0;entryDy=0;entryPerimeter=0;" parent="WIyWlLk6GJQsqaUBKTNV-1" source="CCjqPQjAsDBOnnWErIDQ-398" target="CCjqPQjAsDBOnnWErIDQ-400" edge="1">
          <mxGeometry relative="1" as="geometry" />
        </mxCell>
        <mxCell id="CCjqPQjAsDBOnnWErIDQ-406" style="edgeStyle=orthogonalEdgeStyle;rounded=0;orthogonalLoop=1;jettySize=auto;html=1;exitX=0.5;exitY=1;exitDx=0;exitDy=0;entryX=0.5;entryY=0;entryDx=0;entryDy=0;" parent="WIyWlLk6GJQsqaUBKTNV-1" source="CCjqPQjAsDBOnnWErIDQ-407" target="CCjqPQjAsDBOnnWErIDQ-410" edge="1">
          <mxGeometry relative="1" as="geometry" />
        </mxCell>
        <mxCell id="CCjqPQjAsDBOnnWErIDQ-407" value="&lt;b&gt;Input Address&lt;/b&gt;" style="shape=parallelogram;perimeter=parallelogramPerimeter;whiteSpace=wrap;html=1;fixedSize=1;rounded=0;" parent="WIyWlLk6GJQsqaUBKTNV-1" vertex="1">
          <mxGeometry x="727.5" y="805" width="150" height="50" as="geometry" />
        </mxCell>
        <mxCell id="CCjqPQjAsDBOnnWErIDQ-408" style="edgeStyle=orthogonalEdgeStyle;rounded=0;orthogonalLoop=1;jettySize=auto;html=1;exitX=1;exitY=0.5;exitDx=0;exitDy=0;entryX=1;entryY=0.5;entryDx=0;entryDy=0;" parent="WIyWlLk6GJQsqaUBKTNV-1" source="CCjqPQjAsDBOnnWErIDQ-410" target="CCjqPQjAsDBOnnWErIDQ-407" edge="1">
          <mxGeometry relative="1" as="geometry">
            <mxPoint x="897.5" y="870" as="targetPoint" />
            <Array as="points">
              <mxPoint x="900" y="900" />
              <mxPoint x="900" y="830" />
            </Array>
          </mxGeometry>
        </mxCell>
        <mxCell id="CCjqPQjAsDBOnnWErIDQ-409" style="edgeStyle=orthogonalEdgeStyle;rounded=0;orthogonalLoop=1;jettySize=auto;html=1;exitX=0.5;exitY=1;exitDx=0;exitDy=0;entryX=0.5;entryY=0;entryDx=0;entryDy=0;" parent="WIyWlLk6GJQsqaUBKTNV-1" source="CCjqPQjAsDBOnnWErIDQ-410" target="CCjqPQjAsDBOnnWErIDQ-385" edge="1">
          <mxGeometry relative="1" as="geometry" />
        </mxCell>
        <mxCell id="CCjqPQjAsDBOnnWErIDQ-410" value="&lt;b&gt;Is address&amp;nbsp;&lt;/b&gt;&lt;div&gt;&lt;b&gt;Valid&lt;/b&gt;&lt;/div&gt;" style="rhombus;whiteSpace=wrap;html=1;" parent="WIyWlLk6GJQsqaUBKTNV-1" vertex="1">
          <mxGeometry x="757.5" y="870" width="85" height="60" as="geometry" />
        </mxCell>
        <mxCell id="CCjqPQjAsDBOnnWErIDQ-419" style="edgeStyle=orthogonalEdgeStyle;rounded=0;orthogonalLoop=1;jettySize=auto;html=1;exitX=0.5;exitY=1;exitDx=0;exitDy=0;entryX=0.5;entryY=0;entryDx=0;entryDy=0;" parent="WIyWlLk6GJQsqaUBKTNV-1" source="CCjqPQjAsDBOnnWErIDQ-411" target="CCjqPQjAsDBOnnWErIDQ-412" edge="1">
          <mxGeometry relative="1" as="geometry" />
        </mxCell>
        <mxCell id="CCjqPQjAsDBOnnWErIDQ-421" style="edgeStyle=orthogonalEdgeStyle;rounded=0;orthogonalLoop=1;jettySize=auto;html=1;exitX=1;exitY=0.5;exitDx=0;exitDy=0;entryX=0;entryY=0.5;entryDx=0;entryDy=0;" parent="WIyWlLk6GJQsqaUBKTNV-1" source="CCjqPQjAsDBOnnWErIDQ-411" target="CCjqPQjAsDBOnnWErIDQ-376" edge="1">
          <mxGeometry relative="1" as="geometry">
            <Array as="points">
              <mxPoint x="920" y="1350" />
              <mxPoint x="920" y="1170" />
            </Array>
          </mxGeometry>
        </mxCell>
        <mxCell id="CCjqPQjAsDBOnnWErIDQ-411" value="&lt;b&gt;Choice&lt;br&gt;==&lt;br&gt;1&lt;/b&gt;" style="rhombus;whiteSpace=wrap;html=1;" parent="WIyWlLk6GJQsqaUBKTNV-1" vertex="1">
          <mxGeometry x="760" y="1310" width="80" height="80" as="geometry" />
        </mxCell>
        <mxCell id="CCjqPQjAsDBOnnWErIDQ-420" style="edgeStyle=orthogonalEdgeStyle;rounded=0;orthogonalLoop=1;jettySize=auto;html=1;exitX=0.5;exitY=1;exitDx=0;exitDy=0;entryX=0.5;entryY=0;entryDx=0;entryDy=0;" parent="WIyWlLk6GJQsqaUBKTNV-1" source="CCjqPQjAsDBOnnWErIDQ-412" target="CCjqPQjAsDBOnnWErIDQ-377" edge="1">
          <mxGeometry relative="1" as="geometry" />
        </mxCell>
        <mxCell id="CCjqPQjAsDBOnnWErIDQ-412" value="&lt;b&gt;Choice&amp;nbsp;&lt;br&gt;==&lt;br&gt;2&lt;/b&gt;" style="rhombus;whiteSpace=wrap;html=1;" parent="WIyWlLk6GJQsqaUBKTNV-1" vertex="1">
          <mxGeometry x="760" y="1410" width="80" height="80" as="geometry" />
        </mxCell>
        <mxCell id="CCjqPQjAsDBOnnWErIDQ-416" style="edgeStyle=orthogonalEdgeStyle;rounded=0;orthogonalLoop=1;jettySize=auto;html=1;exitX=1;exitY=0.5;exitDx=0;exitDy=0;entryX=1;entryY=0.5;entryDx=0;entryDy=0;" parent="WIyWlLk6GJQsqaUBKTNV-1" source="CCjqPQjAsDBOnnWErIDQ-415" target="CCjqPQjAsDBOnnWErIDQ-379" edge="1">
          <mxGeometry relative="1" as="geometry">
            <Array as="points">
              <mxPoint x="1068" y="1440" />
              <mxPoint x="1120" y="1440" />
              <mxPoint x="1120" y="1350" />
            </Array>
          </mxGeometry>
        </mxCell>
        <mxCell id="CCjqPQjAsDBOnnWErIDQ-427" style="edgeStyle=orthogonalEdgeStyle;rounded=0;orthogonalLoop=1;jettySize=auto;html=1;exitX=0.5;exitY=1;exitDx=0;exitDy=0;entryX=0.5;entryY=0;entryDx=0;entryDy=0;" parent="WIyWlLk6GJQsqaUBKTNV-1" source="CCjqPQjAsDBOnnWErIDQ-415" target="CCjqPQjAsDBOnnWErIDQ-426" edge="1">
          <mxGeometry relative="1" as="geometry" />
        </mxCell>
        <mxCell id="CCjqPQjAsDBOnnWErIDQ-415" value="&lt;b&gt;Is month&amp;nbsp;&lt;/b&gt;&lt;div&gt;&lt;b&gt;valid&lt;/b&gt;&lt;/div&gt;" style="rhombus;whiteSpace=wrap;html=1;" parent="WIyWlLk6GJQsqaUBKTNV-1" vertex="1">
          <mxGeometry x="982.5" y="1400" width="85" height="80" as="geometry" />
        </mxCell>
        <mxCell id="CCjqPQjAsDBOnnWErIDQ-423" style="edgeStyle=orthogonalEdgeStyle;rounded=0;orthogonalLoop=1;jettySize=auto;html=1;exitX=0.5;exitY=1;exitDx=0;exitDy=0;entryX=0.443;entryY=0.016;entryDx=0;entryDy=0;entryPerimeter=0;" parent="WIyWlLk6GJQsqaUBKTNV-1" source="CCjqPQjAsDBOnnWErIDQ-375" target="CCjqPQjAsDBOnnWErIDQ-379" edge="1">
          <mxGeometry relative="1" as="geometry" />
        </mxCell>
        <mxCell id="CCjqPQjAsDBOnnWErIDQ-426" value="&lt;b&gt;A&lt;/b&gt;" style="ellipse;whiteSpace=wrap;html=1;" parent="WIyWlLk6GJQsqaUBKTNV-1" vertex="1">
          <mxGeometry x="1007.5" y="1510" width="35" height="30" as="geometry" />
        </mxCell>
        <mxCell id="CCjqPQjAsDBOnnWErIDQ-431" style="edgeStyle=orthogonalEdgeStyle;rounded=0;orthogonalLoop=1;jettySize=auto;html=1;exitX=1;exitY=0.5;exitDx=0;exitDy=0;entryX=0;entryY=0.5;entryDx=0;entryDy=0;" parent="WIyWlLk6GJQsqaUBKTNV-1" source="CCjqPQjAsDBOnnWErIDQ-428" target="CCjqPQjAsDBOnnWErIDQ-380" edge="1">
          <mxGeometry relative="1" as="geometry" />
        </mxCell>
        <mxCell id="CCjqPQjAsDBOnnWErIDQ-428" value="&lt;b&gt;A&lt;/b&gt;" style="ellipse;whiteSpace=wrap;html=1;" parent="WIyWlLk6GJQsqaUBKTNV-1" vertex="1">
          <mxGeometry x="650" y="1152.5" width="40" height="35" as="geometry" />
        </mxCell>
        <mxCell id="CCjqPQjAsDBOnnWErIDQ-432" value="&lt;b&gt;R&lt;/b&gt;" style="ellipse;whiteSpace=wrap;html=1;rounded=0;" parent="WIyWlLk6GJQsqaUBKTNV-1" vertex="1">
          <mxGeometry x="780" y="1590" width="40" height="30" as="geometry" />
        </mxCell>
        <mxCell id="7vTTvqhq77VGA1ktP-LC-2" value="&lt;b&gt;A&lt;/b&gt;" style="ellipse;whiteSpace=wrap;html=1;aspect=fixed;" vertex="1" parent="WIyWlLk6GJQsqaUBKTNV-1">
          <mxGeometry x="1100" y="1246.25" width="27.5" height="27.5" as="geometry" />
        </mxCell>
        <mxCell id="7vTTvqhq77VGA1ktP-LC-4" style="edgeStyle=orthogonalEdgeStyle;rounded=0;orthogonalLoop=1;jettySize=auto;html=1;exitX=1;exitY=0.5;exitDx=0;exitDy=0;entryX=1;entryY=0.25;entryDx=0;entryDy=0;" edge="1" parent="WIyWlLk6GJQsqaUBKTNV-1" source="7vTTvqhq77VGA1ktP-LC-3" target="wYdP03RayNkEMsFccGId-217">
          <mxGeometry relative="1" as="geometry">
            <Array as="points">
              <mxPoint x="410" y="1139" />
              <mxPoint x="410" y="1052" />
            </Array>
          </mxGeometry>
        </mxCell>
        <mxCell id="7vTTvqhq77VGA1ktP-LC-12" style="edgeStyle=orthogonalEdgeStyle;rounded=0;orthogonalLoop=1;jettySize=auto;html=1;exitX=0.5;exitY=1;exitDx=0;exitDy=0;entryX=0.5;entryY=0;entryDx=0;entryDy=0;" edge="1" parent="WIyWlLk6GJQsqaUBKTNV-1" source="7vTTvqhq77VGA1ktP-LC-3" target="7vTTvqhq77VGA1ktP-LC-5">
          <mxGeometry relative="1" as="geometry" />
        </mxCell>
        <mxCell id="7vTTvqhq77VGA1ktP-LC-3" value="&lt;b&gt;Is kitta&lt;br&gt;valid&lt;/b&gt;" style="rhombus;whiteSpace=wrap;html=1;" vertex="1" parent="WIyWlLk6GJQsqaUBKTNV-1">
          <mxGeometry x="287.5" y="1108" width="72.5" height="62" as="geometry" />
        </mxCell>
        <mxCell id="7vTTvqhq77VGA1ktP-LC-13" style="edgeStyle=orthogonalEdgeStyle;rounded=0;orthogonalLoop=1;jettySize=auto;html=1;exitX=0.5;exitY=1;exitDx=0;exitDy=0;entryX=0.5;entryY=0;entryDx=0;entryDy=0;" edge="1" parent="WIyWlLk6GJQsqaUBKTNV-1" source="7vTTvqhq77VGA1ktP-LC-5" target="7vTTvqhq77VGA1ktP-LC-6">
          <mxGeometry relative="1" as="geometry" />
        </mxCell>
        <mxCell id="7vTTvqhq77VGA1ktP-LC-5" value="&lt;b&gt;Input name&lt;/b&gt;" style="shape=parallelogram;perimeter=parallelogramPerimeter;whiteSpace=wrap;html=1;fixedSize=1;rounded=0;" vertex="1" parent="WIyWlLk6GJQsqaUBKTNV-1">
          <mxGeometry x="253.75" y="1200" width="140" height="45" as="geometry" />
        </mxCell>
        <mxCell id="7vTTvqhq77VGA1ktP-LC-8" style="edgeStyle=orthogonalEdgeStyle;rounded=0;orthogonalLoop=1;jettySize=auto;html=1;exitX=1;exitY=0.5;exitDx=0;exitDy=0;entryX=1;entryY=0.5;entryDx=0;entryDy=0;" edge="1" parent="WIyWlLk6GJQsqaUBKTNV-1" source="7vTTvqhq77VGA1ktP-LC-6" target="7vTTvqhq77VGA1ktP-LC-5">
          <mxGeometry relative="1" as="geometry">
            <Array as="points">
              <mxPoint x="410" y="1304" />
              <mxPoint x="410" y="1223" />
            </Array>
          </mxGeometry>
        </mxCell>
        <mxCell id="7vTTvqhq77VGA1ktP-LC-14" style="edgeStyle=orthogonalEdgeStyle;rounded=0;orthogonalLoop=1;jettySize=auto;html=1;exitX=0.5;exitY=1;exitDx=0;exitDy=0;entryX=0.5;entryY=0;entryDx=0;entryDy=0;" edge="1" parent="WIyWlLk6GJQsqaUBKTNV-1" source="7vTTvqhq77VGA1ktP-LC-6" target="wYdP03RayNkEMsFccGId-219">
          <mxGeometry relative="1" as="geometry" />
        </mxCell>
        <mxCell id="7vTTvqhq77VGA1ktP-LC-6" value="&lt;b&gt;Is name&lt;br&gt;valid&lt;/b&gt;" style="rhombus;whiteSpace=wrap;html=1;" vertex="1" parent="WIyWlLk6GJQsqaUBKTNV-1">
          <mxGeometry x="281.88" y="1270" width="76.25" height="67" as="geometry" />
        </mxCell>
        <mxCell id="7vTTvqhq77VGA1ktP-LC-10" style="edgeStyle=orthogonalEdgeStyle;rounded=0;orthogonalLoop=1;jettySize=auto;html=1;exitX=1;exitY=0.5;exitDx=0;exitDy=0;entryX=1;entryY=0.5;entryDx=0;entryDy=0;" edge="1" parent="WIyWlLk6GJQsqaUBKTNV-1" source="7vTTvqhq77VGA1ktP-LC-9" target="wYdP03RayNkEMsFccGId-219">
          <mxGeometry relative="1" as="geometry">
            <Array as="points">
              <mxPoint x="410" y="1466" />
              <mxPoint x="410" y="1385" />
            </Array>
          </mxGeometry>
        </mxCell>
        <mxCell id="7vTTvqhq77VGA1ktP-LC-16" style="edgeStyle=orthogonalEdgeStyle;rounded=0;orthogonalLoop=1;jettySize=auto;html=1;exitX=0.5;exitY=1;exitDx=0;exitDy=0;entryX=0.5;entryY=0;entryDx=0;entryDy=0;" edge="1" parent="WIyWlLk6GJQsqaUBKTNV-1" source="7vTTvqhq77VGA1ktP-LC-9" target="wYdP03RayNkEMsFccGId-221">
          <mxGeometry relative="1" as="geometry" />
        </mxCell>
        <mxCell id="7vTTvqhq77VGA1ktP-LC-9" value="&lt;b&gt;Is month&lt;br&gt;valid&lt;/b&gt;" style="rhombus;whiteSpace=wrap;html=1;" vertex="1" parent="WIyWlLk6GJQsqaUBKTNV-1">
          <mxGeometry x="281.88" y="1430" width="76.25" height="71" as="geometry" />
        </mxCell>
        <mxCell id="7vTTvqhq77VGA1ktP-LC-46" style="edgeStyle=orthogonalEdgeStyle;rounded=0;orthogonalLoop=1;jettySize=auto;html=1;exitX=1;exitY=0.5;exitDx=0;exitDy=0;entryX=0;entryY=0.5;entryDx=0;entryDy=0;" edge="1" parent="WIyWlLk6GJQsqaUBKTNV-1" source="7vTTvqhq77VGA1ktP-LC-17" target="wYdP03RayNkEMsFccGId-67">
          <mxGeometry relative="1" as="geometry" />
        </mxCell>
        <mxCell id="7vTTvqhq77VGA1ktP-LC-17" value="&lt;b&gt;R&lt;/b&gt;" style="ellipse;whiteSpace=wrap;html=1;" vertex="1" parent="WIyWlLk6GJQsqaUBKTNV-1">
          <mxGeometry x="330" y="120" width="40" height="40" as="geometry" />
        </mxCell>
        <mxCell id="7vTTvqhq77VGA1ktP-LC-19" value="&lt;b&gt;R&lt;/b&gt;" style="ellipse;whiteSpace=wrap;html=1;rounded=0;" vertex="1" parent="WIyWlLk6GJQsqaUBKTNV-1">
          <mxGeometry x="297.5" y="1590" width="45" height="30" as="geometry" />
        </mxCell>
        <mxCell id="7vTTvqhq77VGA1ktP-LC-48" style="edgeStyle=orthogonalEdgeStyle;rounded=0;orthogonalLoop=1;jettySize=auto;html=1;exitX=1;exitY=0.5;exitDx=0;exitDy=0;entryX=0;entryY=0.5;entryDx=0;entryDy=0;" edge="1" parent="WIyWlLk6GJQsqaUBKTNV-1" source="7vTTvqhq77VGA1ktP-LC-21" target="CCjqPQjAsDBOnnWErIDQ-383">
          <mxGeometry relative="1" as="geometry" />
        </mxCell>
        <mxCell id="7vTTvqhq77VGA1ktP-LC-21" value="&lt;b&gt;B&lt;/b&gt;" style="ellipse;whiteSpace=wrap;html=1;rounded=0;" vertex="1" parent="WIyWlLk6GJQsqaUBKTNV-1">
          <mxGeometry x="685" y="326.25" width="35" height="37.5" as="geometry" />
        </mxCell>
        <mxCell id="7vTTvqhq77VGA1ktP-LC-28" value="&lt;b&gt;B&lt;/b&gt;" style="ellipse;whiteSpace=wrap;html=1;aspect=fixed;" vertex="1" parent="WIyWlLk6GJQsqaUBKTNV-1">
          <mxGeometry x="360" y="760" width="35" height="35" as="geometry" />
        </mxCell>
        <mxCell id="7vTTvqhq77VGA1ktP-LC-35" style="edgeStyle=orthogonalEdgeStyle;rounded=0;orthogonalLoop=1;jettySize=auto;html=1;exitX=0.5;exitY=1;exitDx=0;exitDy=0;entryX=0.5;entryY=0;entryDx=0;entryDy=0;" edge="1" parent="WIyWlLk6GJQsqaUBKTNV-1" source="7vTTvqhq77VGA1ktP-LC-32" target="wYdP03RayNkEMsFccGId-84">
          <mxGeometry relative="1" as="geometry" />
        </mxCell>
        <mxCell id="7vTTvqhq77VGA1ktP-LC-32" value="&lt;b&gt;Input user Choice&lt;/b&gt;" style="shape=parallelogram;perimeter=parallelogramPerimeter;whiteSpace=wrap;html=1;fixedSize=1;" vertex="1" parent="WIyWlLk6GJQsqaUBKTNV-1">
          <mxGeometry x="305" y="566.75" width="140" height="47" as="geometry" />
        </mxCell>
        <mxCell id="7vTTvqhq77VGA1ktP-LC-47" style="edgeStyle=orthogonalEdgeStyle;rounded=0;orthogonalLoop=1;jettySize=auto;html=1;exitX=1;exitY=0.5;exitDx=0;exitDy=0;entryX=0;entryY=0.5;entryDx=0;entryDy=0;" edge="1" parent="WIyWlLk6GJQsqaUBKTNV-1" source="7vTTvqhq77VGA1ktP-LC-40" target="wYdP03RayNkEMsFccGId-217">
          <mxGeometry relative="1" as="geometry" />
        </mxCell>
        <mxCell id="7vTTvqhq77VGA1ktP-LC-40" value="&lt;b&gt;C&lt;/b&gt;" style="ellipse;whiteSpace=wrap;html=1;rounded=0;" vertex="1" parent="WIyWlLk6GJQsqaUBKTNV-1">
          <mxGeometry x="190" y="1046.25" width="32.5" height="32.5" as="geometry" />
        </mxCell>
        <mxCell id="7vTTvqhq77VGA1ktP-LC-42" value="&lt;b&gt;C&lt;/b&gt;" style="ellipse;whiteSpace=wrap;html=1;" vertex="1" parent="WIyWlLk6GJQsqaUBKTNV-1">
          <mxGeometry x="248.12" y="757.5" width="41.25" height="37.5" as="geometry" />
        </mxCell>
        <mxCell id="7vTTvqhq77VGA1ktP-LC-44" value="&lt;b&gt;R&lt;/b&gt;" style="ellipse;whiteSpace=wrap;html=1;" vertex="1" parent="WIyWlLk6GJQsqaUBKTNV-1">
          <mxGeometry x="140" y="760" width="40" height="35" as="geometry" />
        </mxCell>
        <mxCell id="7vTTvqhq77VGA1ktP-LC-49" value="&lt;b&gt;Yes&lt;/b&gt;" style="text;html=1;align=center;verticalAlign=middle;resizable=0;points=[];autosize=1;strokeColor=none;fillColor=none;" vertex="1" parent="WIyWlLk6GJQsqaUBKTNV-1">
          <mxGeometry x="802.5" y="457" width="40" height="30" as="geometry" />
        </mxCell>
        <mxCell id="7vTTvqhq77VGA1ktP-LC-50" value="&lt;b&gt;Yes&lt;/b&gt;" style="text;html=1;align=center;verticalAlign=middle;resizable=0;points=[];autosize=1;strokeColor=none;fillColor=none;" vertex="1" parent="WIyWlLk6GJQsqaUBKTNV-1">
          <mxGeometry x="800" y="613.75" width="40" height="30" as="geometry" />
        </mxCell>
        <mxCell id="7vTTvqhq77VGA1ktP-LC-51" value="&lt;b&gt;Yes&lt;/b&gt;" style="text;html=1;align=center;verticalAlign=middle;resizable=0;points=[];autosize=1;strokeColor=none;fillColor=none;" vertex="1" parent="WIyWlLk6GJQsqaUBKTNV-1">
          <mxGeometry x="802.5" y="775" width="40" height="30" as="geometry" />
        </mxCell>
        <mxCell id="7vTTvqhq77VGA1ktP-LC-52" value="&lt;b&gt;Yes&lt;/b&gt;" style="text;html=1;align=center;verticalAlign=middle;resizable=0;points=[];autosize=1;strokeColor=none;fillColor=none;" vertex="1" parent="WIyWlLk6GJQsqaUBKTNV-1">
          <mxGeometry x="800" y="930" width="40" height="30" as="geometry" />
        </mxCell>
        <mxCell id="7vTTvqhq77VGA1ktP-LC-53" value="&lt;b&gt;Yes&lt;/b&gt;" style="text;html=1;align=center;verticalAlign=middle;resizable=0;points=[];autosize=1;strokeColor=none;fillColor=none;" vertex="1" parent="WIyWlLk6GJQsqaUBKTNV-1">
          <mxGeometry x="800" y="1110" width="40" height="30" as="geometry" />
        </mxCell>
        <mxCell id="7vTTvqhq77VGA1ktP-LC-54" value="&lt;b&gt;Yes&lt;/b&gt;" style="text;html=1;align=center;verticalAlign=middle;resizable=0;points=[];autosize=1;strokeColor=none;fillColor=none;" vertex="1" parent="WIyWlLk6GJQsqaUBKTNV-1">
          <mxGeometry x="1010" y="1295" width="40" height="30" as="geometry" />
        </mxCell>
        <mxCell id="7vTTvqhq77VGA1ktP-LC-55" value="&lt;b&gt;Yes&lt;/b&gt;" style="text;html=1;align=center;verticalAlign=middle;resizable=0;points=[];autosize=1;strokeColor=none;fillColor=none;" vertex="1" parent="WIyWlLk6GJQsqaUBKTNV-1">
          <mxGeometry x="1020" y="1471" width="40" height="30" as="geometry" />
        </mxCell>
        <mxCell id="7vTTvqhq77VGA1ktP-LC-56" value="&lt;b&gt;Yes&lt;/b&gt;" style="text;html=1;align=center;verticalAlign=middle;resizable=0;points=[];autosize=1;strokeColor=none;fillColor=none;" vertex="1" parent="WIyWlLk6GJQsqaUBKTNV-1">
          <mxGeometry x="837.5" y="1345" width="40" height="30" as="geometry" />
        </mxCell>
        <mxCell id="7vTTvqhq77VGA1ktP-LC-58" value="&lt;b&gt;Yes&lt;/b&gt;" style="text;html=1;align=center;verticalAlign=middle;resizable=0;points=[];autosize=1;strokeColor=none;fillColor=none;" vertex="1" parent="WIyWlLk6GJQsqaUBKTNV-1">
          <mxGeometry x="318.13" y="1501" width="40" height="30" as="geometry" />
        </mxCell>
        <mxCell id="7vTTvqhq77VGA1ktP-LC-59" value="&lt;b&gt;Yes&lt;/b&gt;" style="text;html=1;align=center;verticalAlign=middle;resizable=0;points=[];autosize=1;strokeColor=none;fillColor=none;" vertex="1" parent="WIyWlLk6GJQsqaUBKTNV-1">
          <mxGeometry x="320" y="1330" width="40" height="30" as="geometry" />
        </mxCell>
        <mxCell id="7vTTvqhq77VGA1ktP-LC-60" value="&lt;b&gt;Yes&lt;/b&gt;" style="text;html=1;align=center;verticalAlign=middle;resizable=0;points=[];autosize=1;strokeColor=none;fillColor=none;" vertex="1" parent="WIyWlLk6GJQsqaUBKTNV-1">
          <mxGeometry x="320" y="1165" width="40" height="30" as="geometry" />
        </mxCell>
        <mxCell id="7vTTvqhq77VGA1ktP-LC-61" value="&lt;b&gt;Yes&lt;/b&gt;" style="text;html=1;align=center;verticalAlign=middle;resizable=0;points=[];autosize=1;strokeColor=none;fillColor=none;" vertex="1" parent="WIyWlLk6GJQsqaUBKTNV-1">
          <mxGeometry x="342.5" y="720" width="40" height="30" as="geometry" />
        </mxCell>
        <mxCell id="7vTTvqhq77VGA1ktP-LC-62" value="&lt;b&gt;Yes&lt;/b&gt;" style="text;html=1;align=center;verticalAlign=middle;resizable=0;points=[];autosize=1;strokeColor=none;fillColor=none;" vertex="1" parent="WIyWlLk6GJQsqaUBKTNV-1">
          <mxGeometry x="230" y="726.25" width="40" height="30" as="geometry" />
        </mxCell>
        <mxCell id="7vTTvqhq77VGA1ktP-LC-63" value="&lt;b&gt;No&lt;/b&gt;" style="text;html=1;align=center;verticalAlign=middle;resizable=0;points=[];autosize=1;strokeColor=none;fillColor=none;" vertex="1" parent="WIyWlLk6GJQsqaUBKTNV-1">
          <mxGeometry x="500" y="365" width="40" height="30" as="geometry" />
        </mxCell>
        <mxCell id="7vTTvqhq77VGA1ktP-LC-64" value="&lt;b&gt;No&lt;/b&gt;" style="text;html=1;align=center;verticalAlign=middle;resizable=0;points=[];autosize=1;strokeColor=none;fillColor=none;" vertex="1" parent="WIyWlLk6GJQsqaUBKTNV-1">
          <mxGeometry x="305" y="690" width="40" height="30" as="geometry" />
        </mxCell>
        <mxCell id="7vTTvqhq77VGA1ktP-LC-65" value="&lt;b&gt;No&lt;/b&gt;" style="text;html=1;align=center;verticalAlign=middle;resizable=0;points=[];autosize=1;strokeColor=none;fillColor=none;" vertex="1" parent="WIyWlLk6GJQsqaUBKTNV-1">
          <mxGeometry x="190" y="690" width="40" height="30" as="geometry" />
        </mxCell>
        <mxCell id="7vTTvqhq77VGA1ktP-LC-66" value="&lt;b&gt;No&lt;/b&gt;" style="text;html=1;align=center;verticalAlign=middle;resizable=0;points=[];autosize=1;strokeColor=none;fillColor=none;" vertex="1" parent="WIyWlLk6GJQsqaUBKTNV-1">
          <mxGeometry x="845" y="745" width="40" height="30" as="geometry" />
        </mxCell>
        <mxCell id="7vTTvqhq77VGA1ktP-LC-67" value="&lt;b&gt;No&lt;/b&gt;" style="text;html=1;align=center;verticalAlign=middle;resizable=0;points=[];autosize=1;strokeColor=none;fillColor=none;" vertex="1" parent="WIyWlLk6GJQsqaUBKTNV-1">
          <mxGeometry x="837.5" y="587.5" width="40" height="30" as="geometry" />
        </mxCell>
        <mxCell id="7vTTvqhq77VGA1ktP-LC-68" value="&lt;b&gt;No&lt;/b&gt;" style="text;html=1;align=center;verticalAlign=middle;resizable=0;points=[];autosize=1;strokeColor=none;fillColor=none;" vertex="1" parent="WIyWlLk6GJQsqaUBKTNV-1">
          <mxGeometry x="842.5" y="427" width="40" height="30" as="geometry" />
        </mxCell>
        <mxCell id="7vTTvqhq77VGA1ktP-LC-69" value="&lt;b&gt;No&lt;/b&gt;" style="text;html=1;align=center;verticalAlign=middle;resizable=0;points=[];autosize=1;strokeColor=none;fillColor=none;" vertex="1" parent="WIyWlLk6GJQsqaUBKTNV-1">
          <mxGeometry x="845" y="900" width="40" height="30" as="geometry" />
        </mxCell>
        <mxCell id="7vTTvqhq77VGA1ktP-LC-70" value="&lt;b&gt;No&lt;/b&gt;" style="text;html=1;align=center;verticalAlign=middle;resizable=0;points=[];autosize=1;strokeColor=none;fillColor=none;" vertex="1" parent="WIyWlLk6GJQsqaUBKTNV-1">
          <mxGeometry x="840" y="1078" width="40" height="30" as="geometry" />
        </mxCell>
        <mxCell id="7vTTvqhq77VGA1ktP-LC-71" value="&lt;b&gt;No&lt;/b&gt;" style="text;html=1;align=center;verticalAlign=middle;resizable=0;points=[];autosize=1;strokeColor=none;fillColor=none;" vertex="1" parent="WIyWlLk6GJQsqaUBKTNV-1">
          <mxGeometry x="805" y="1380" width="40" height="30" as="geometry" />
        </mxCell>
        <mxCell id="7vTTvqhq77VGA1ktP-LC-72" value="&lt;b&gt;No&lt;/b&gt;" style="text;html=1;align=center;verticalAlign=middle;resizable=0;points=[];autosize=1;strokeColor=none;fillColor=none;" vertex="1" parent="WIyWlLk6GJQsqaUBKTNV-1">
          <mxGeometry x="350" y="1300" width="40" height="30" as="geometry" />
        </mxCell>
        <mxCell id="7vTTvqhq77VGA1ktP-LC-73" value="&lt;b&gt;No&lt;/b&gt;" style="text;html=1;align=center;verticalAlign=middle;resizable=0;points=[];autosize=1;strokeColor=none;fillColor=none;" vertex="1" parent="WIyWlLk6GJQsqaUBKTNV-1">
          <mxGeometry x="350" y="1460" width="40" height="30" as="geometry" />
        </mxCell>
        <mxCell id="7vTTvqhq77VGA1ktP-LC-74" value="&lt;b&gt;No&lt;/b&gt;" style="text;html=1;align=center;verticalAlign=middle;resizable=0;points=[];autosize=1;strokeColor=none;fillColor=none;" vertex="1" parent="WIyWlLk6GJQsqaUBKTNV-1">
          <mxGeometry x="353.75" y="1135" width="40" height="30" as="geometry" />
        </mxCell>
        <mxCell id="7vTTvqhq77VGA1ktP-LC-75" value="&lt;b&gt;No&lt;/b&gt;" style="text;html=1;align=center;verticalAlign=middle;resizable=0;points=[];autosize=1;strokeColor=none;fillColor=none;" vertex="1" parent="WIyWlLk6GJQsqaUBKTNV-1">
          <mxGeometry x="1050" y="1260" width="40" height="30" as="geometry" />
        </mxCell>
        <mxCell id="7vTTvqhq77VGA1ktP-LC-76" value="&lt;b&gt;No&lt;/b&gt;" style="text;html=1;align=center;verticalAlign=middle;resizable=0;points=[];autosize=1;strokeColor=none;fillColor=none;" vertex="1" parent="WIyWlLk6GJQsqaUBKTNV-1">
          <mxGeometry x="1060" y="1441" width="40" height="30" as="geometry" />
        </mxCell>
      </root>
    </mxGraphModel>
  </diagram>
</mxfile>
